# xmcd CD database file
#
# Track frame offsets:
#	150
#	12355
#	26181
#	41155
#	54867
#	68383
#	81997
#	96379
#	111021
#	124134
#	137460
#	152347
#	165956
#	179630
#	192547
#	205731
#	220222
#	234936
#	249039
#	264089
#	279591
#	295104
#	309360
#	324144
#	336784
#
# Disc length: 4673 seconds
#
# Revision: 0
# Processed by: cddbd v1.5.1PL2 Copyright (c) Steve Scherf et al.
# Submitted via: CDex 1.51
#
DISCID=4e123f19
DTITLE=Lonnie Johnson - Roots Of The Blues
DYEAR=2004
DGENRE=Blues
TTITLE0=Mr Johnson's Blues
TTITLE1=Have To Change Keys To Play These Blues
TTITLE2=He's A Jelly Roll Baker
TTITLE3=Playing With These Strings
TTITLE4=Sweet Potato Blues
TTITLE5=I Done Told You
TTITLE6=Woke Up With The Blues In My Fingers
TTITLE7=Racketeers Blues
TTITLE8=Steppin' On The Blues
TTITLE9=Mean Old Bedbug Blues
TTITLE10=Guitar Blues
TTITLE11=Hot Fingers
TTITLE12=6/88 Glide
TTITLE13=Away Down In The Alley Blues
TTITLE14=Why Women Go Wrong
TTITLE15=She's Making Whoopie In Hell Tonight
TTITLE16=No More Troubles Now
TTITLE17=Uncle Ned Don't Lose Your Head
TTITLE18=Let All Married Women Alone
TTITLE19=Broken Levee Blues
TTITLE20=Steady Grind (With Victoria Spivey)
TTITLE21=What Make You Act Like That (With Victoria Spivey)
TTITLE22=Garter Snake Blues (With Victoria Spivey)
TTITLE23=Burying Ground Blues (With Mooch Richardson)
TTITLE24=Helen Blues (With Mooch Richardson)
EXTD=YEAR: 2004
EXTT0=
EXTT1=
EXTT2=
EXTT3=
EXTT4=
EXTT5=
EXTT6=
EXTT7=
EXTT8=
EXTT9=
EXTT10=
EXTT11=
EXTT12=
EXTT13=
EXTT14=
EXTT15=
EXTT16=
EXTT17=
EXTT18=
EXTT19=
EXTT20=
EXTT21=
EXTT22=
EXTT23=
EXTT24=
PLAYORDER=
